<?xml version="1.0" standalone="no"?><!DOCTYPE svg PUBLIC "-//W3C//DTD SVG 1.1//EN" "http://www.w3.org/Graphics/SVG/1.1/DTD/svg11.dtd"><svg height="300" node-id="1" sillyvg="true" template-height="300" template-width="300" version="1.1" viewBox="0 0 300 300" width="300" xmlns="http://www.w3.org/2000/svg" xmlns:xlink="http://www.w3.org/1999/xlink"><defs node-id="47"></defs><path d="M 300.00 150.00 L 299.80 158.30 L 299.10 166.50 L 298.00 174.40 L 296.50 182.20 L 294.60 189.90 L 291.70 199.30 L 288.20 208.40 L 284.10 217.20 L 279.50 225.70 L 274.40 233.90 L 268.70 241.70 L 262.60 249.10 L 256.10 256.10 L 249.10 262.60 L 241.70 268.70 L 233.90 274.40 L 225.70 279.50 L 217.20 284.10 L 208.40 288.20 L 199.30 291.70 L 189.90 294.60 L 182.20 296.50 L 174.40 298.00 L 166.50 299.10 L 158.30 299.80 L 150.00 300.00 L 141.70 299.80 L 133.50 299.10 L 125.60 298.00 L 117.80 296.50 L 110.10 294.60 L 100.70 291.70 L 91.60 288.20 L 82.80 284.10 L 74.30 279.50 L 66.10 274.40 L 58.30 268.70 L 50.90 262.60 L 43.90 256.10 L 37.40 249.10 L 31.30 241.70 L 25.60 233.90 L 20.50 225.70 L 15.90 217.20 L 11.80 208.40 L 8.30 199.30 L 5.40 189.90 L 3.50 182.20 L 2.00 174.40 L 0.90 166.50 L 0.20 158.30 L 0.00 150.00 L 0.20 141.70 L 0.90 133.50 L 2.00 125.60 L 3.50 117.80 L 5.40 110.10 L 8.30 100.70 L 11.80 91.60 L 15.90 82.80 L 20.50 74.30 L 25.60 66.10 L 31.30 58.30 L 37.40 50.90 L 43.90 43.90 L 50.90 37.40 L 58.30 31.30 L 66.10 25.60 L 74.30 20.50 L 82.80 15.90 L 91.60 11.80 L 100.70 8.30 L 110.10 5.40 L 117.80 3.50 L 125.60 2.00 L 133.50 0.90 L 141.70 0.20 L 150.00 0.00 L 158.30 0.20 L 166.50 0.90 L 174.40 2.00 L 182.20 3.50 L 189.90 5.40 L 199.30 8.30 L 208.40 11.80 L 217.20 15.90 L 225.70 20.50 L 233.90 25.60 L 241.70 31.30 L 249.10 37.40 L 256.10 43.90 L 262.60 50.90 L 268.70 58.30 L 274.40 66.10 L 279.50 74.30 L 284.10 82.80 L 288.20 91.60 L 291.70 100.70 L 294.60 110.10 L 296.50 117.80 L 298.00 125.60 L 299.10 133.50 L 299.80 141.70 L 300.00 150.00 Z" fill="#d3e9e9" fill-rule="nonzero" node-id="49" stroke="none" target-height="300" target-width="300" target-x="0" target-y="0"></path><g node-id="137"><g node-id="138"><path d="M 197.20 235.40 L 270.00 235.40 L 209.30 228.70 Z" fill="#159d38" fill-rule="nonzero" group-id="1,2" node-id="55" stroke="none" target-height="6.699997" target-width="72.8" target-x="197.2" target-y="228.7"></path><path d="M 243.90 235.40 L 209.30 228.70 L 197.20 235.40 Z" fill="#008035" fill-rule="nonzero" group-id="1,2" node-id="57" stroke="none" target-height="6.699997" target-width="46.699997" target-x="197.2" target-y="228.7"></path></g><g node-id="139"><path d="M 192.40 182.90 L 192.10 180.20 L 191.50 177.90 L 190.40 175.60 L 189.00 173.60 L 187.30 171.90 L 185.30 170.50 L 183.10 169.50 L 180.70 168.80 L 178.10 168.60 L 63.40 168.60 L 60.80 168.80 L 58.40 169.50 L 56.20 170.50 L 54.20 171.90 L 52.50 173.60 L 51.10 175.60 L 50.00 177.90 L 49.30 180.20 L 49.10 182.90 L 49.10 197.20 L 192.40 197.20 L 192.40 182.90 Z" fill="#4fad34" fill-rule="nonzero" group-id="1,3" node-id="62" stroke="none" target-height="28.59999" target-width="143.29999" target-x="49.1" target-y="168.6"></path><path d="M 49.10 190.30 L 192.40 197.20 L 49.10 197.20 Z" fill="#159d38" fill-rule="nonzero" group-id="1,3" node-id="64" stroke="none" target-height="6.899994" target-width="143.29999" target-x="49.1" target-y="190.3"></path><path d="M 178.10 168.60 L 66.80 168.60 L 68.20 171.10 L 70.10 173.50 L 72.50 175.70 L 78.40 179.20 L 81.90 180.60 L 87.30 182.40 L 92.80 183.80 L 103.10 185.60 L 110.90 186.50 L 192.40 188.40 L 192.10 180.20 L 191.50 177.90 L 190.40 175.60 L 189.00 173.60 L 187.30 171.90 L 185.30 170.50 L 183.10 169.50 L 180.70 168.80 L 178.10 168.60 Z" fill="#8ebd41" fill-rule="nonzero" group-id="1,3" node-id="66" stroke="none" target-height="19.799988" target-width="125.59999" target-x="66.8" target-y="168.6"></path><path d="M 178.10 168.60 L 66.80 168.60 L 69.30 172.70 L 71.10 174.50 L 192.40 182.40 L 192.10 179.90 L 191.40 177.60 L 190.30 175.40 L 187.10 171.80 L 185.20 170.40 L 183.00 169.40 L 180.60 168.80 L 178.10 168.60 Z" fill="#c3d352" fill-rule="nonzero" group-id="1,3" node-id="68" stroke="none" target-height="13.799988" target-width="125.59999" target-x="66.8" target-y="168.6"></path><path d="M 118.00 178.50 L 117.80 180.20 L 117.20 181.70 L 116.10 183.00 L 114.80 184.00 L 113.40 184.70 L 111.60 184.90 L 109.90 184.70 L 108.40 184.00 L 107.10 183.00 L 106.10 181.70 L 105.40 180.20 L 105.20 178.50 L 105.40 176.70 L 106.10 175.30 L 107.10 174.00 L 108.40 172.90 L 109.90 172.30 L 111.60 172.10 L 113.40 172.30 L 114.80 172.90 L 116.10 174.00 L 117.20 175.30 L 117.80 176.70 L 118.00 178.50 Z" fill="#159d38" fill-rule="nonzero" group-id="1,3" node-id="70" stroke="none" target-height="12.799988" target-width="12.800003" target-x="105.2" target-y="172.1"></path><path d="M 170.20 180.30 L 170.00 181.60 L 168.80 183.70 L 166.70 184.90 L 165.40 185.10 L 164.10 184.90 L 162.00 183.70 L 160.80 181.60 L 160.60 180.30 L 160.80 179.00 L 162.00 176.90 L 164.10 175.70 L 165.40 175.50 L 166.70 175.70 L 168.80 176.90 L 170.00 179.00 L 170.20 180.30 Z" fill="#159d38" fill-rule="nonzero" group-id="1,3" node-id="72" stroke="none" target-height="9.600006" target-width="9.599991" target-x="160.6" target-y="175.5"></path><path d="M 144.00 186.70 L 143.80 188.20 L 142.40 190.70 L 139.90 192.20 L 138.30 192.40 L 135.40 191.60 L 133.30 189.60 L 132.80 188.20 L 132.60 186.70 L 133.30 183.80 L 135.40 181.70 L 138.30 181.00 L 139.90 181.20 L 142.40 182.60 L 143.80 185.10 L 144.00 186.70 Z" fill="#4fad34" fill-rule="nonzero" group-id="1,3" node-id="74" stroke="none" target-height="11.399994" target-width="11.399994" target-x="132.6" target-y="181"></path><path d="M 90.40 174.80 L 90.20 176.10 L 89.00 178.20 L 86.90 179.40 L 85.60 179.60 L 83.20 178.90 L 81.50 177.20 L 81.00 176.10 L 80.80 174.80 L 81.50 172.40 L 83.20 170.70 L 85.60 170.00 L 86.90 170.20 L 89.00 171.40 L 90.20 173.50 L 90.40 174.80 Z" fill="#4fad34" fill-rule="nonzero" group-id="1,3" node-id="76" stroke="none" target-height="9.600006" target-width="9.599998" target-x="80.8" target-y="170"></path></g><g node-id="140"><path d="M 211.50 211.50 L 211.20 208.90 L 210.60 206.50 L 209.50 204.30 L 208.10 202.30 L 206.40 200.60 L 204.40 199.20 L 202.20 198.10 L 199.80 197.50 L 197.20 197.20 L 44.30 197.20 L 41.70 197.50 L 39.30 198.10 L 37.10 199.20 L 35.10 200.60 L 33.40 202.30 L 32.00 204.30 L 30.90 206.50 L 30.20 208.90 L 30.00 211.50 L 30.20 223.70 L 30.90 226.10 L 32.00 228.40 L 33.40 230.40 L 35.10 232.10 L 37.10 233.50 L 39.30 234.50 L 41.70 235.20 L 44.30 235.40 L 197.20 235.40 L 199.80 235.20 L 202.20 234.50 L 204.40 233.50 L 206.40 232.10 L 208.10 230.40 L 209.50 228.40 L 210.60 226.10 L 211.30 223.80 L 211.50 211.50 Z" fill="#38aa38" fill-rule="nonzero" group-id="1,4" node-id="81" stroke="none" target-height="38.199997" target-width="181.5" target-x="30" target-y="197.2"></path><path d="M 211.50 211.50 L 211.20 208.90 L 210.60 206.50 L 209.50 204.30 L 208.10 202.30 L 206.40 200.60 L 204.40 199.20 L 202.20 198.10 L 199.80 197.50 L 197.20 197.20 L 56.10 197.20 L 57.90 200.10 L 60.00 202.70 L 62.60 205.10 L 68.50 209.00 L 71.80 210.60 L 76.90 212.70 L 87.10 215.60 L 91.60 216.40 L 101.30 217.70 L 211.50 221.10 L 211.50 211.50 Z" fill="#73b546" fill-rule="nonzero" group-id="1,4" node-id="83" stroke="none" target-height="23.90001" target-width="155.4" target-x="56.1" target-y="197.2"></path><path d="M 44.30 235.40 L 197.20 235.40 L 193.70 235.00 L 30.00 221.10 L 30.30 223.70 L 30.90 226.10 L 32.00 228.30 L 33.40 230.30 L 35.10 232.00 L 37.10 233.50 L 39.30 234.50 L 41.70 235.20 L 44.30 235.40 Z" fill="#159d38" fill-rule="nonzero" group-id="1,4" node-id="85" stroke="none" target-height="14.299988" target-width="167.2" target-x="30" target-y="221.1"></path><path d="M 106.50 207.60 L 106.20 209.30 L 105.60 210.80 L 104.60 212.10 L 103.30 213.10 L 101.80 213.70 L 100.10 214.00 L 98.30 213.70 L 96.80 213.10 L 95.50 212.10 L 94.50 210.80 L 93.90 209.30 L 93.70 207.60 L 93.90 205.80 L 94.50 204.30 L 95.50 203.00 L 96.80 202.00 L 98.30 201.40 L 100.10 201.10 L 101.80 201.40 L 103.30 202.00 L 104.60 203.00 L 105.60 204.30 L 106.20 205.80 L 106.50 207.60 Z" fill="#159d38" fill-rule="nonzero" group-id="1,4" node-id="87" stroke="none" target-height="12.899994" target-width="12.800003" target-x="93.7" target-y="201.1"></path><path d="M 159.20 211.50 L 159.00 212.80 L 157.80 214.90 L 155.70 216.10 L 154.40 216.30 L 152.00 215.70 L 150.30 214.00 L 149.80 212.80 L 149.60 211.50 L 150.30 209.10 L 152.00 207.40 L 154.40 206.80 L 155.70 206.90 L 157.80 208.20 L 159.00 210.20 L 159.20 211.50 Z" fill="#159d38" fill-rule="nonzero" group-id="1,4" node-id="89" stroke="none" target-height="9.5" target-width="9.599991" target-x="149.6" target-y="206.8"></path><path d="M 58.70 221.10 L 58.50 222.40 L 57.30 224.50 L 55.20 225.70 L 53.90 225.90 L 51.50 225.30 L 49.80 223.50 L 49.30 222.40 L 49.10 221.10 L 49.80 218.70 L 51.50 217.00 L 53.90 216.30 L 55.20 216.50 L 57.30 217.70 L 58.50 219.80 L 58.70 221.10 Z" fill="#73b546" fill-rule="nonzero" group-id="1,4" node-id="91" stroke="none" target-height="9.599991" target-width="9.600002" target-x="49.1" target-y="216.3"></path><path d="M 195.70 221.10 L 195.50 222.40 L 194.30 224.50 L 192.20 225.70 L 190.90 225.90 L 189.60 225.70 L 187.50 224.50 L 186.30 222.40 L 186.10 221.10 L 186.30 219.80 L 187.50 217.70 L 189.60 216.50 L 190.90 216.30 L 192.20 216.50 L 194.30 217.70 L 195.50 219.80 L 195.70 221.10 Z" fill="#159d38" fill-rule="nonzero" group-id="1,4" node-id="93" stroke="none" target-height="9.599991" target-width="9.599991" target-x="186.1" target-y="216.3"></path></g><g node-id="141"><g node-id="142"><path d="M 62.90 88.80 L 59.80 89.50 L 55.10 89.50 L 52.30 88.90 L 48.60 86.50 L 47.70 85.40 L 46.80 82.80 L 47.10 79.90 L 48.40 77.40 L 46.90 78.20 L 45.10 80.10 L 44.40 81.70 L 44.00 85.10 L 43.80 85.50 L 42.50 85.60 L 41.10 84.90 L 39.30 82.90 L 38.50 81.00 L 38.90 84.10 L 40.70 87.10 L 42.90 89.20 L 45.50 90.50 L 51.10 91.90 L 58.30 92.00 L 60.80 90.70 L 62.90 88.80 Z" fill="#efabaf" fill-rule="nonzero" group-id="1,5,6" node-id="100" stroke="none" target-height="14.599998" target-width="24.400002" target-x="38.5" target-y="77.4"></path><path d="M 68.00 88.80 L 71.70 87.50 L 75.20 87.40 L 75.50 86.20 L 73.60 85.70 L 71.80 85.70 L 68.90 86.40 L 62.90 88.80 L 60.80 90.70 L 58.20 92.00 L 63.20 90.90 L 68.00 88.80 Z" fill="#eb546f" fill-rule="nonzero" group-id="1,5,6" node-id="102" stroke="none" target-height="6.300003" target-width="17.3" target-x="58.2" target-y="85.7"></path></g><path d="M 119.70 111.60 L 115.50 109.90 L 72.70 168.60 L 109.40 168.60 L 112.10 164.00 L 115.80 155.80 L 117.60 150.20 L 119.20 144.10 L 120.40 136.90 L 120.90 131.20 L 121.00 125.00 L 120.60 118.60 L 119.70 111.60 Z" fill="#d6e4b9" fill-rule="nonzero" group-id="1,5" node-id="105" stroke="none" target-height="58.700005" target-width="48.300003" target-x="72.7" target-y="109.9"></path><path d="M 144.00 81.80 L 125.90 64.60 L 78.20 73.50 L 73.90 93.10 L 119.70 111.60 L 120.60 118.60 L 121.00 125.00 L 120.90 131.20 L 120.40 136.90 L 119.20 144.10 L 117.60 150.20 L 115.80 155.80 L 112.10 164.00 L 109.40 168.60 L 117.40 168.60 L 150.90 120.10 L 144.00 81.80 Z" fill="#8ebd41" fill-rule="nonzero" group-id="1,5" node-id="107" stroke="none" target-height="104.00001" target-width="76.99999" target-x="73.9" target-y="64.6"></path><path d="M 76.80 79.90 L 145.10 87.90 L 144.00 81.80 L 125.90 64.60 L 78.20 73.50 Z" fill="#c3d352" fill-rule="nonzero" group-id="1,5" node-id="109" stroke="none" target-height="23.300003" target-width="68.3" target-x="76.8" target-y="64.6"></path><path d="M 79.00 160.00 L 72.70 168.60 L 109.40 168.60 L 112.50 163.20 L 114.60 158.80 L 116.50 153.70 L 118.40 147.20 L 112.70 146.40 L 108.50 146.30 L 104.00 146.50 L 98.80 147.30 L 95.30 148.30 L 88.30 151.40 L 85.10 153.60 L 81.90 156.40 L 79.00 160.00 Z" fill="#bdd174" fill-rule="nonzero" group-id="1,5" node-id="111" stroke="none" target-height="22.300003" target-width="45.700005" target-x="72.7" target-y="146.3"></path><path d="M 119.70 111.60 L 120.10 118.40 L 120.00 123.70 L 119.40 129.50 L 118.10 136.60 L 116.80 141.40 L 112.90 152.10 L 110.30 157.40 L 107.00 162.90 L 103.00 168.60 L 109.40 168.60 L 114.00 160.10 L 117.60 150.20 L 119.20 144.10 L 120.40 136.90 L 120.90 131.20 L 121.00 125.00 L 120.60 118.60 L 119.70 111.60 Z" fill="#ecf1cf" fill-rule="nonzero" group-id="1,5" node-id="113" stroke="none" target-height="57.000008" target-width="18" target-x="103" target-y="111.6"></path><path d="M 103.00 168.60 L 109.50 168.50 L 112.10 164.00 L 114.90 158.10 L 118.40 147.20 L 115.10 146.70 L 112.90 151.90 L 110.20 157.50 L 107.00 162.90 L 103.00 168.60 Z" fill="#d6e4b9" fill-rule="nonzero" group-id="1,5" node-id="115" stroke="none" target-height="21.90001" target-width="15.400002" target-x="103" target-y="146.7"></path><path d="M 92.90 77.70 L 107.40 72.10 L 99.60 81.40 Z" fill="#241710" fill-rule="nonzero" group-id="1,5" node-id="117" stroke="none" target-height="9.300003" target-width="14.5" target-x="92.9" target-y="72.1"></path><path d="M 73.80 87.90 L 99.00 87.90 L 75.70 84.70" fill="#241710" fill-rule="nonzero" group-id="1,5" node-id="119" stroke="none" target-height="3.2000046" target-width="25.199997" target-x="73.8" target-y="84.7"></path><path d="M 109.10 118.70 L 120.60 118.60 L 110.60 116.60 Z" fill="#8ebd41" fill-rule="nonzero" group-id="1,5" node-id="121" stroke="none" target-height="2.0999985" target-width="11.5" target-x="109.1" target-y="116.6"></path><path d="M 102.10 128.30 L 121.00 128.70 L 103.80 125.90 Z" fill="#8ebd41" fill-rule="nonzero" group-id="1,5" node-id="123" stroke="none" target-height="2.7999954" target-width="18.900002" target-x="102.1" target-y="125.9"></path><path d="M 96.10 136.50 L 120.00 139.60 L 93.90 139.40 Z" fill="#8ebd41" fill-rule="nonzero" group-id="1,5" node-id="125" stroke="none" target-height="3.100006" target-width="26.099998" target-x="93.9" target-y="136.5"></path><path d="M 88.30 147.20 L 117.10 151.80 L 86.40 149.70 Z" fill="#8ebd41" fill-rule="nonzero" group-id="1,5" node-id="127" stroke="none" target-height="4.600006" target-width="30.699997" target-x="86.4" target-y="147.2"></path><path d="M 80.70 157.80 L 112.70 162.90 L 79.00 160.00 Z" fill="#8ebd41" fill-rule="nonzero" group-id="1,5" node-id="129" stroke="none" target-height="5.099991" target-width="33.699997" target-x="79" target-y="157.8"></path><path d="M 117.40 168.60 L 150.90 120.10 L 145.60 125.60 L 138.10 131.20 L 132.70 134.30 L 119.70 141.10 L 118.40 147.40 L 115.10 157.50 L 113.50 161.30 L 109.40 168.60 L 117.40 168.60 Z" fill="#4fad34" fill-rule="nonzero" group-id="1,5" node-id="131" stroke="none" target-height="48.500008" target-width="41.499992" target-x="109.4" target-y="120.1"></path><path d="M 138.60 121.40 L 138.40 122.60 L 137.20 124.70 L 135.10 126.00 L 133.80 126.10 L 131.40 125.50 L 129.70 123.80 L 129.20 122.70 L 129.00 121.40 L 129.70 118.90 L 131.40 117.20 L 133.80 116.60 L 135.10 116.80 L 137.20 118.00 L 138.40 120.10 L 138.60 121.40 Z" fill="#159d38" fill-rule="nonzero" group-id="1,5" node-id="133" stroke="none" target-height="9.5" target-width="9.600006" target-x="129" target-y="116.6"></path><path d="M 138.30 99.80 L 138.90 103.00 L 139.60 104.50 L 141.00 106.30 L 142.90 107.80 L 144.30 108.50 L 145.90 108.90 L 148.90 109.00 L 145.60 90.70 L 143.60 91.40 L 141.90 92.50 L 140.40 93.90 L 139.30 95.70 L 138.60 97.60 L 138.30 99.80 Z" fill="#159d38" fill-rule="nonzero" group-id="1,5" node-id="135" stroke="none" target-height="18.300003" target-width="10.599991" target-x="138.3" target-y="90.7"></path></g></g></svg>